<svg width="4059" height="3540" xmlns="http://www.w3.org/2000/svg">
 <!-- Created with Method Draw - http://github.com/duopixel/Method-Draw/ -->

 <g>
  <title>background</title>
  <rect fill="none" id="canvas_background" height="3542" width="4061" y="-1" x="-1"/>
  <g display="none" overflow="visible" y="0" x="0" height="100%" width="100%" id="canvasGrid">
   <rect fill="url(#gridpattern)" stroke-width="0" y="1515.611328" x="1478.515625" height="509" width="1102"/>
  </g>
 </g>
 <g>
  <title>Layer 1</title>
  <!-- Created with Method Draw - http://github.com/duopixel/Method-Draw/ -->
  <g id="svg_77">
   <path id="svg_59" fill="#f1f1f1" d="m3782.608779,3536.198197l0,-383.529789s149.465599,271.906238 0,383.529789z"/>
   <path id="svg_60" fill="#f1f1f1" d="m3791.841594,3536.130705l-282.529122,-259.368992s301.379977,73.776891 282.529122,259.368992z"/>
   <path id="svg_61" fill="#3f3d56" d="m1432.627391,682.767265l-15.78654,0l0,-432.467055a250.300055,250.300055 0 0 0 -250.299896,-250.300161l-916.240366,0a250.300002,250.300002 0 0 0 -250.300585,250.299578l0,2372.548251a250.300161,250.300161 0 0 0 250.299896,250.300373l916.239835,0a250.300161,250.300161 0 0 0 250.30085,-250.299419l0,-1632.24425l15.786805,0l0,-307.837317z"/>
   <path id="svg_62" fill="#fff" d="m1176.639708,65.119367l-119.599635,0a88.805914,88.805914 0 0 1 -82.222181,122.345472l-524.902188,0a88.805914,88.805914 0 0 1 -82.222181,-122.345632l-111.706312,0a186.921307,186.921307 0 0 0 -186.921731,186.921095l0,2369.067111a186.92136,186.92136 0 0 0 186.921254,186.921519l920.652973,0a186.921413,186.921413 0 0 0 186.921519,-186.921254l0,0l0,-2369.066952a186.921201,186.921201 0 0 0 -186.921519,-186.92136z"/>
   <circle transform="matrix(5.301766503571571,0,0,5.301766503571571,0,0) " fill="#f50057" r="84.446198" cy="261.233577" cx="135.10849" data-name="Ellipse 44" id="svg_57"/>
   <polygon id="svg_64" fill="#9f616a" points="3129.41015625,3463.5433349609375 3064.410400390625,3463.5382080078125 3033.49072265625,3212.8280029296875 3129.4208984375,3212.8333740234375 3129.41015625,3463.5433349609375 "/>
   <path id="svg_65" fill="#2f2e41" d="m3145.985859,3526.549247l-209.582859,-0.007794l0,-2.650883a81.579872,81.579872 0 0 1 81.575471,-81.574199l0.005302,0l128.00585,0.005302l-0.003764,84.227574z"/>
   <polygon id="svg_66" fill="#9f616a" points="2635.619384765625,3461.4014892578125 2572.8251953125,3444.6107177734375 2607.7109375,3194.4202880859375 2700.3857421875,3219.2003173828125 2635.619384765625,3461.4014892578125 "/>
   <path id="svg_67" fill="#2f2e41" d="m2635.358677,3526.549247l-202.469161,-54.14164l0.68467,-2.560753a81.579925,81.579925 0 0 1 99.877699,-57.735919l0.004984,0.001378l123.661053,33.068178l-21.759245,81.368755z"/>
   <polygon id="svg_68" fill="#2f2e41" points="3166.80322265625,2058.5115966796875 3221.247314453125,2121.7615966796875 3150.834716796875,3407.1378173828125 3000.43408203125,3407.1378173828125 2924.602783203125,2418.0877685546875 2689.490966796875,3433.6624755859375 2533.131103515625,3395.3148193359375 2675.302978515625,2105.4002685546875 3166.80322265625,2058.5115966796875 "/>
   <path id="svg_69" fill="#cbcbcb" d="m2711.651946,1228.652625l149.75253,-75.111929l230.292832,4.048058l198.178229,101.408744l-112.75357,563.118964l48.706534,293.610344l-0.000318,0a1201.021731,1201.021731 0 0 1 -574.367404,4.727585l-1.507875,-0.358187s111.940544,-397.189631 64.287312,-518.399677l-2.588269,-373.043902z"/>
   <path id="svg_70" fill="#9f616a" d="m3144.888393,928.530227a169.669199,169.669199 0 1 0 0,1.25567q0.002227,-0.627729 0,-1.25567z"/>
   <path id="svg_71" fill="#2f2e41" d="m2899.242971,831.581223a48.135904,48.135904 0 0 1 32.430163,-13.082427c18.127058,-0.58892 45.287955,5.848326 56.846919,20.584639c9.290126,11.843722 9.73452,28.138596 9.769989,43.191265l0.098083,41.543476c0.029054,12.290608 0.17851,25.10572 5.76249,36.054875s18.401954,19.265506 30.112178,15.533009c13.89137,-4.42777 19.999748,-22.890589 34.196394,-26.210502c10.661852,-2.493262 21.613765,5.297896 26.274335,15.20605a65.948939,65.948939 0 0 1 3.794845,32.266551c-1.343892,21.753148 -32.54272,30.382462 -36.959834,51.724617c-2.555451,12.345163 -11.501864,36.971763 0,31.810599c53.017665,-5.301767 76.288656,-36.268907 100.553993,-65.419928l54.727803,-65.74657a64.26462,64.26462 0 0 0 14.095435,-22.810585a63.359503,63.359503 0 0 0 1.446481,-18.18877q-0.447628,-24.512187 -1.330743,-49.011067c-0.514271,-14.2705 -4.106112,-32.27514 -18.081569,-35.207865c-7.268722,-1.525265 -16.888459,1.134578 -20.730543,-5.221339a14.42441,14.42441 0 0 1 -0.657419,-10.131676c3.084303,-16.309983 8.29138,-33.369318 2.923447,-49.076332c-8.095797,-23.688823 -35.972486,-33.409294 -60.604493,-37.87863s-52.283688,-8.314389 -67.744594,-28.003507a214.725679,214.725679 0 0 0 -13.446605,-18.900798a52.783221,52.783221 0 0 0 -25.207779,-12.714007a139.323903,139.323903 0 0 0 -91.615214,8.130948c-11.915243,5.437174 -23.883557,12.759125 -36.954479,11.930724c-13.577029,-0.860583 -25.174166,-10.415638 -38.578251,-12.740145c-21.650877,-3.754817 -42.349238,12.465832 -53.018778,31.675669c-13.220591,23.802758 -14.4339,56.399397 4.242792,76.212045c9.31759,9.884507 23.219192,16.674056 27.08874,29.695194c1.575049,5.300123 1.209439,11.008641 2.602478,16.35929a29.53137,29.53137 0 0 0 23.797933,20.590152c13.238829,2.156706 24.44003,-3.908621 34.165803,-12.164956z"/>
   <path id="svg_72" fill="#9f616a" d="m2690.983009,1639.224869a60.768371,60.768371 0 0 0 88.276692,29.83304l304.073222,160.739487l9.8466,-74.07326l-295.465008,-174.230097a61.097981,61.097981 0 0 0 -106.731505,57.730935l0,-0.000106z"/>
   <path id="svg_73" fill="#9f616a" d="m3096.191191,1652.032347a60.768848,60.768848 0 0 1 -92.665229,9.795226l-331.875261,90.313366l2.88888,-94.045067l330.137766,-85.748386a61.097981,61.097981 0 0 1 91.513792,79.684861l0.000053,0z"/>
   <path id="svg_74" fill="#cbcbcb" d="m3225.16684,1263.051653l64.708802,-4.053996s75.7606,99.965868 33.738374,208.443351c0,0 7.280068,389.672575 -160.518774,373.666542s-220.816454,-16.006033 -220.816454,-16.006033l50.366782,-140.496812l112.677171,-34.789025s-34.727207,-153.190567 31.0077,-216.928298l88.8364,-169.835728z"/>
   <path id="svg_75" fill="#cbcbcb" d="m2757.910336,1259.628461l-9.146024,-46.880976s-134.875137,-3.168495 -161.543924,201.208348c0,0 -121.288088,305.87121 -2.404616,345.254057s249.653451,0 249.653451,0l-9.850152,-134.886642l-130.809213,-26.696197s67.573665,-87.422312 30.778875,-163.251623l33.321602,-174.746966z"/>
   <path id="svg_76" fill="#cbcbcb" d="m4053.729401,3540.222821l-2019.973038,0a5.301767,5.301767 0 0 1 0,-10.603533l2019.973038,0a5.301767,5.301767 0 0 1 0,10.603533z"/>
   <g stroke="null" id="svg_106">
    <path stroke="null" id="svg_105" fill="#ffffff" p-id="2028" d="m685.412629,1370.640188c-7.893663,27.600976 0.32219,55.416738 21.049771,71.230915c28.486993,21.747848 68.868184,8.054758 77.164585,-26.714947c2.147933,-9.048181 2.765469,-19.385123 0.724928,-28.35275c-6.175313,-26.876048 -13.961583,-53.376203 -21.264562,-80.440191c-35.709431,4.134778 -68.2775,31.46726 -77.674722,64.276972zm148.959334,-7.705717c7.32983,27.171387 7.65202,54.154828 -3.40985,80.547584c-30.285892,72.224331 -126.755046,84.306469 -176.479756,22.177437c-34.957651,-43.683642 -34.366967,-106.349662 1.610952,-153.953284c20.942372,-27.708369 48.435949,-45.831575 81.836345,-55.148244l10.175847,-2.79232c-2.255332,-11.142412 -5.047646,-21.908943 -6.524354,-32.863414c-4.725456,-35.360389 13.746786,-67.20353 46.824997,-81.621547c32.91711,-14.364321 72.707617,-5.799426 94.777655,20.405384c10.900775,12.860768 10.60543,28.99713 -0.671232,39.307221c-11.061864,10.122151 -26.741798,9.289823 -38.52859,-2.416428c-6.631753,-6.604902 -13.693089,-11.813644 -23.546746,-11.706245c-14.095827,0.161095 -26.500155,11.222959 -25.372489,25.157691c0.993422,12.565423 4.644909,24.969751 8.054758,37.212984c0.590684,2.094237 5.799426,3.624641 9.075026,4.107927c35.81683,5.289296 67.230387,19.626765 93.220406,44.999254c68.680238,66.935042 76.815544,175.35209 18.042659,253.456395c-41.052416,54.557566 -96.925595,85.058249 -164.505017,91.528907c-124.070124,11.813644 -232.621422,-67.928464 -260.437184,-189.50162c-25.372489,-111.263058 37.051889,-230.043899 143.240449,-272.492476c15.73363,-6.282712 30.688629,-0.832321 36.810246,13.370899c6.229015,14.418018 -0.510131,29.158225 -16.378005,36.246413c-63.578895,28.460148 -102.483378,76.654455 -113.169355,145.630032c-14.310625,92.173287 44.462266,181.930147 134.245971,207.275784c73.110355,20.673878 151.912743,-4.456968 196.213914,-62.558621c42.582821,-55.846327 37.58887,-136.904048 -11.464608,-184.534515a106.832947,106.832947 0 0 0 -48.94608,-27.198238c5.316141,19.224028 10.444335,37.266686 15.304041,55.363041z"/>
   </g>
  </g>
 </g>
</svg>